<svg width="28" height="36" viewBox="0 0 28 36" fill="none" xmlns="http://www.w3.org/2000/svg">
<path fill-rule="evenodd" clip-rule="evenodd" d="M16.6 0.0920026C17.006 0.219687 17.3607 0.473565 17.6125 0.816714C17.8643 1.15986 18.0001 1.57439 18 2V12H26C26.3659 11.9998 26.7247 12.1 27.0376 12.2897C27.3505 12.4793 27.6053 12.7511 27.7744 13.0755C27.9435 13.3999 28.0204 13.7645 27.9967 14.1295C27.973 14.4946 27.8497 14.8462 27.64 15.146L13.64 35.146C13.3964 35.4951 13.0477 35.7573 12.6447 35.8945C12.2417 36.0317 11.8055 36.0368 11.3994 35.909C10.9934 35.7811 10.6387 35.5271 10.387 35.1837C10.1353 34.8404 9.99976 34.4257 10 34V24H2.00004C1.6342 24.0002 1.27533 23.9 0.962471 23.7104C0.649616 23.5207 0.394766 23.2489 0.225655 22.9245C0.0565439 22.6001 -0.0203485 22.2355 0.00334518 21.8705C0.0270389 21.5054 0.150411 21.1538 0.360036 20.854L14.36 0.854003C14.6041 0.505576 14.9528 0.244027 15.3556 0.107355C15.7585 -0.0293178 16.1944 -0.033995 16.6 0.0940027V0.0920026Z" fill="#5B99C2"/>
</svg>
